<svg xmlns="http://www.w3.org/2000/svg" viewBox="0 0 1200 630" role="img" aria-labelledby="title desc">
  <title id="title">Crossroads Marching Classic results</title>
  <desc id="desc">New Albany grand champion, Ripley reserve grand champion, and Alcorn Central second in Class 3A at the September 26, 2026 contest in Corinth.</desc>
  <rect width="1200" height="630" fill="#132047"/>
  <path d="M0 0h18v630H0z" fill="#f0d000"/>
  <circle cx="1025" cy="128" r="78" fill="none" stroke="#f0d000" stroke-width="7" opacity=".8"/>
  <path d="M1004 74v103c-6-5-15-8-25-6-14 3-23 13-20 23 4 10 17 14 30 10 12-4 20-13 20-24V96l55-12v77c-6-5-15-7-24-5-14 3-23 13-20 22 4 10 17 14 30 10 13-4 21-14 21-24V64z" fill="#f0d000"/>
  <text x="75" y="88" fill="#f0d000" font-family="Arial, sans-serif" font-size="25" font-weight="700" letter-spacing="3">CORINTH · SEPT. 26, 2026</text>
  <text x="75" y="159" fill="#ffffff" font-family="Arial, sans-serif" font-size="55" font-weight="800">CROSSROADS MARCHING CLASSIC</text>
  <path d="M75 184h1050" stroke="#f0d000" stroke-width="4"/>
  <text x="75" y="250" fill="#f0d000" font-family="Arial, sans-serif" font-size="25" font-weight="700" letter-spacing="2">GRAND CHAMPION</text>
  <text x="75" y="310" fill="#ffffff" font-family="Arial, sans-serif" font-size="50" font-weight="700">NEW ALBANY</text>
  <text x="75" y="374" fill="#f0d000" font-family="Arial, sans-serif" font-size="25" font-weight="700" letter-spacing="2">RESERVE GRAND CHAMPION</text>
  <text x="75" y="432" fill="#ffffff" font-family="Arial, sans-serif" font-size="49" font-weight="700">RIPLEY</text>
  <text x="75" y="493" fill="#ffffff" font-family="Arial, sans-serif" font-size="30">ALCORN CENTRAL  ·  2ND IN CLASS 3A</text>
  <path d="M75 530h1050" stroke="#f0d000" stroke-width="2" opacity=".7"/>
  <text x="75" y="572" fill="#ffffff" font-family="Arial, sans-serif" font-size="22">RCTV19 RESULTS GRAPHIC  ·  SOURCE: ALCORN COUNTY NEWS</text>
</svg>
